#!OML:ASF E:\acrobat2\Project_11_07_03\Capture day 1\Session 1\Acrobat.ASF
:FULLY-SPECIFIED
:DEGREES
88
root 11.1295 21.3712 14.5045 3.96305 2.63173 -0.181535
lowerback -7.64349 -3.19535 -1.23113
upperback -0.665472 -4.20176 1.35886
thorax 3.7807 -2.11579 1.63711
lowerneck 10.8853 -16.7813 -11.8895
upperneck 0.693453 -23.7101 11.5001
head 1.27781 -12.1449 5.11323
rclavicle -6.81459e-015 1.11319e-014
rhumerus -36.1042 -0.857606 -84.049
rradius 23.6752
rwrist 5.49454
rhand -5.15946 -40.0398
rfingers 7.12502
rthumb 20.6402 -68.9623
lclavicle -6.81459e-015 1.11319e-014
lhumerus -33.015 4.33556 86.1463
lradius 22.8563
lwrist 0.505581
lhand -3.82507 -13.8772
lfingers 7.12502
lthumb 21.9219 14.9008
rfemur 5.12189 9.39786 15.4459
rtibia -2.12511
rfoot -22.9435 -11.9484
rtoes 14.0222
lfemur 2.47026 -0.255583 -12.6785
ltibia -0.394939
lfoot -10.5362 -8.11339
ltoes 7.86544
89
root 11.1294 21.3706 14.5119 3.9569 2.65028 -0.189545
lowerback -7.59205 -3.18255 -1.26815
upperback -0.715443 -4.18165 1.36071
thorax 3.70206 -2.1058 1.66649
lowerneck 10.9741 -16.7318 -11.9735
upperneck 0.676853 -23.6647 11.6418
head 1.28073 -12.1282 5.1725
rclavicle 2.78547e-014 1.39149e-014
rhumerus -36.1232 -0.634912 -84.1531
rradius 23.798
rwrist 5.22816
rhand -5.19587 -40.1067
rfingers 7.12502
rthumb 20.6052 -69.0331
lclavicle 2.78547e-014 1.39149e-014
lhumerus -33.1097 4.39565 86.0934
lradius 22.7826
lwrist 0.494791
lhand -3.84495 -13.8757
lfingers 7.12502
lthumb 21.9028 14.9046
rfemur 5.13959 9.47642 15.4885
rtibia -2.08928
rfoot -22.9301 -12.1136
rtoes 13.9011
lfemur 2.48145 -0.296105 -12.6711
ltibia -0.370933
lfoot -10.5308 -7.99849
ltoes 7.65437
90
root 11.1299 21.3702 14.5191 3.94307 2.66814 -0.19334
lowerback -7.51326 -3.17092 -1.29809
upperback -0.780492 -4.16384 1.3618
thorax 3.59205 -2.09656 1.69288
lowerneck 11.0665 -16.6953 -12.034
upperneck 0.676926 -23.6342 11.7227
head 1.27977 -12.1177 5.21171
rclavicle 1.40361e-014 1.39149e-015
rhumerus -36.1763 -0.405152 -84.2492
rradius 23.9397
rwrist 4.9661
rhand -5.19472 -40.1742
rfingers 7.12502
rthumb 20.6063 -69.1005
lclavicle 1.40361e-014 1.39149e-015
lhumerus -33.2273 4.48642 86.027
lradius 22.7007
lwrist 0.387832
lhand -3.85599 -13.8749
lfingers 7.12502
lthumb 21.8922 14.9066
rfemur 5.17389 9.49724 15.512
rtibia -2.07164
rfoot -22.8964 -12.2209
rtoes 13.7804
lfemur 2.49998 -0.314284 -12.6759
ltibia -0.343621
lfoot -10.528 -7.89509
ltoes 7.30583
91
root 11.1312 21.3699 14.5263 3.9266 2.68141 -0.182352
lowerback -7.45107 -3.1557 -1.32158
upperback -0.829373 -4.1413 1.34855
thorax 3.50636 -2.08492 1.69991
lowerneck 11.1217 -16.6822 -12.0266
upperneck 0.677898 -23.6216 11.7358
head 1.27099 -12.1134 5.22081
rclavicle -2.60656e-014 -1.59028e-015
rhumerus -36.2066 -0.21076 -84.3419
rradius 24.0852
rwrist 4.72692
rhand -5.17899 -40.2355
rfingers 7.12502
rthumb 20.6214 -69.1601
lclavicle -2.60656e-014 -1.59028e-015
lhumerus -33.3135 4.58477 85.9447
lradius 22.6066
lwrist 0.226005
lhand -3.86388 -13.8842
lfingers 7.12502
lthumb 21.8847 14.8981
rfemur 5.21755 9.46036 15.5
rtibia -2.06958
rfoot -22.846 -12.2634
rtoes 13.6419
lfemur 2.52361 -0.314052 -12.7067
ltibia -0.318258
lfoot -10.5276 -7.80466
ltoes 6.84662
92
root 11.1334 21.37 14.5335 3.91004 2.69259 -0.149382
lowerback -7.39356 -3.14111 -1.34917
upperback -0.870492 -4.11883 1.32152
thorax 3.43061 -2.07334 1.69443
lowerneck 11.1213 -16.6846 -11.9497
upperneck 0.703426 -23.6161 11.6715
head 1.26164 -12.1092 5.1947
rclavicle -2.99606e-014 1.49089e-014
rhumerus -36.2229 -0.0420323 -84.4342
rradius 24.2297
rwrist 4.51829
rhand -5.15371 -40.3132
rfingers 7.12502
rthumb 20.6457 -69.2351
lclavicle -2.99606e-014 1.49089e-014
lhumerus -33.3814 4.68107 85.8531
lradius 22.5065
lwrist 0.0528781
lhand -3.87074 -13.9044
lfingers 7.12502
lthumb 21.8781 14.8787
rfemur 5.27025 9.36638 15.442
rtibia -2.0849
rfoot -22.7871 -12.227
rtoes 13.5539
lfemur 2.55163 -0.301704 -12.7733
ltibia -0.29611
lfoot -10.5218 -7.74078
ltoes 6.4084
